<svg width="180" height="180" viewBox="0 0 40 40" fill="none" xmlns="http://www.w3.org/2000/svg">
  <rect width="40" height="40" fill="white" rx="8"/>
  <path
    d="M20 8L8 18V32C8 33.1046 8.89543 34 10 34H16V26C16 24.8954 16.8954 24 18 24H22C23.1046 24 24 24.8954 24 26V34H30C31.1046 34 32 33.1046 32 32V18L20 8Z"
    fill="#00C27A"
  />
  <path
    d="M20 8L8 18V32C8 33.1046 8.89543 34 10 34H16V26C16 24.8954 16.8954 24 18 24H22C23.1046 24 24 24.8954 24 26V34H30C31.1046 34 32 33.1046 32 32V18L20 8Z"
    stroke="#00C27A"
    stroke-width="2"
    stroke-linecap="round"
    stroke-linejoin="round"
  />
  <path
    d="M4 36C8 34 12 36 16 36C20 36 24 34 28 34C32 34 36 36 36 36"
    stroke="#00C27A"
    stroke-width="2"
    stroke-linecap="round"
    opacity="0.6"
  />
</svg>